{"title":"The.Gift.2015.BRRiP.XViD.AC3.5.1.ReLeNTLesS","uid":12634406,"size":1568522492,"categoryP":"video","categoryS":"movies","magnet":"?xt=urn:btih:47038be81f41a642c750f0d7e35316a88c469869&amp;dn=The.Gift.2015.BRRiP.XViD.AC3.5.1.ReLeNTLesS&amp;tr=udp%3A%2F%2Ftracker.leechers-paradise.org%3A6969&amp;tr=udp%3A%2F%2Fzer0day.ch%3A1337&amp;tr=udp%3A%2F%2Fopen.demonii.com%3A1337&amp;tr=udp%3A%2F%2Ftracker.coppersurfer.tk%3A6969&amp;tr=udp%3A%2F%2Fexodus.desync.com%3A6969","seeders":0,"leechers":0,"uploader":"TvTeam","files":4,"time":1445901624,"description":"------------------------------------------------------------------------\r\n\r  https://www.torrenting.com\r\n\r\nSign up is OPEN - for time being. Come and have fun.\r\n\r\n------------------------------------------------------------------------P0STER\r\n[img]http://i.imgur.com/XzYfWV4.png[/img]\r\n\r\niMDB: http://www.imdb.com/title/tt4178092/\r\n\r\nGeneral\r\nComplete name               : The.Gift.2015.BRRiP.XViD.AC3.5.1.ReLeNTLesS.avi\r\nFormat                      : AVI\r\nFormat/Info                 : Audio Video Interleave\r\nFile size                   : 1.44 GiB\r\nDuration                    : 1h 48mn\r\nOverall bit rate            : 1 911 Kbps\r\n\r\nVideo\r\nID                          : 0\r\nFormat                      : MPEG-4 Visual\r\nFormat profile              : Advanced   \r\nFormat settings, BVOP       : 1\r\nFormat settings, QPel       : No\r\nFormat settings, GMC        : No warppoints\r\nFormat settings, Matrix     : Default (H.263)\r\nMuxing mode                 : Packed bitstream\r\nCodec ID                    : XVID\r\nCodec ID/Hint               : XviD\r\nDuration                    : 1h 48mn\r\nBit rate                    : 1 711 Kbps\r\nWidth                       : 720 pixels\r\nHeight                      : 304 pixels\r\nDisplay aspect ratio        : 2.35:1\r\nFrame rate                  : 23.976 fps\r\nColor space                 : YUV\r\nChroma subsampling          : 4:2:0\r\nBit depth                   : 8 bits\r\nScan type                   : Progressive\r\nCompression mode            : Lossy\r\nBits/(Pixel*Frame)          : 0.326\r\nStream size                 : 1.29 GiB (90%)\r\nWriting library             : XviD 1.2.1 (UTC 2008-12-04)\r\n\r\nAudio\r\nID                          : 1\r\nFormat                      : AC-3\r\nFormat/Info                 : Audio Coding 3\r\nMode extension              : CM (complete main)\r\nFormat settings, Endianness : Big\r\nCodec ID                    : 2000\r\nDuration                    : 1h 48mn\r\nBit rate mode               : Constant\r\nBit rate                    : 192 Kbps\r\nChannel(s)                  : 6 channels\r\nChannel positions           : Front: L C R, Side: L R, LFE\r\nSampling rate               : 48.0 KHz\r\nCompression mode            : Lossy\r\nStream size                 : 149 MiB (10%)\r\nAlignment                   : Aligned on interleaves\r\nInterleave, duration        : 64 ms (1.53 video frames)\r\nInterleave, preload duratio : 192 ms\r\nTitle                       : The.Gift.2015.ReLeNTLesS.audio.English.5.1\r\nSample Included             : Yes\r\nSource                      : DRONES Thanks \r\n\r\nPL0T\r\nA young married couple's lives are thrown into a harrowing tailspin when an acquaintance from the husband's past brings mysterious gifts and a horrifying secret to light after more than 20 years.\r\n\r\nCAST\r\nDirector: Joel Edgerton\r\nWriter: Joel Edgerton\r\nStars: Jason Bateman, Rebecca Hall, Joel Edgerton \r\n\r\nSCREENS\r\n[img]http://i.imgur.com/UbzDqCa.png[/img]\r\n[img]http://i.imgur.com/qXq5vWK.png[/img]\r\n[img]http://i.imgur.com/iIlNa1H.png[/img]\r\n[img]http://i.imgur.com/NKwUhh6.png[/img]\r\n[img]http://i.imgur.com/41NQoX5.png[/img]\r\n[img]http://i.imgur.com/TJeP9eH.png[/img]\r\n\r\nTRAiLER\r\n\r\nGREETZ\r\n\r\nHIVE-CM8, Blackjesus, M0RPH, M00SE, MiLLENiUM,\r\n\r\nMANiX, TiTAN, Anonymous, TuX, \r\n\r\nACAB, KingStoner, FooKas, 4PlayHD, \r\n\r\nSoZE, GodFather, Cld.... \r\n\r\nKeep up the good work guyz","torrent":{"xt":"urn:btih:47038be81f41a642c750f0d7e35316a88c469869","amp;dn":"The.Gift.2015.BRRiP.XViD.AC3.5.1.ReLeNTLesS","amp;tr":["udp%3A%2F%2Ftracker.leechers-paradise.org%3A6969","udp%3A%2F%2Fzer0day.ch%3A1337","udp%3A%2F%2Fopen.demonii.com%3A1337","udp%3A%2F%2Ftracker.coppersurfer.tk%3A6969","udp%3A%2F%2Fexodus.desync.com%3A6969"],"infoHash":"47038be81f41a642c750f0d7e35316a88c469869","infoHashBuffer":{"type":"Buffer","data":[71,3,139,232,31,65,166,66,199,80,240,215,227,83,22,168,140,70,152,105]},"announce":[],"urlList":[]}}